<svg version="1.1" width="24" height="24" viewBox="0 0 24 24" xmlns="http://www.w3.org/2000/svg">
  <title>fullscreen</title>
  <path fill="#1181A6" d="M3,15 L3.11662113,15.0067277 C3.57570299,15.0600494 3.93995063,15.424297 3.99327227,15.8833789 L4,16 L4,20 L8,20 L8.11662113,20.0067277 C8.61395981,20.0644928 9,20.4871642 9,21 C9,21.5128358 8.61395981,21.9355072 8.11662113,21.9932723 L8,22 L3,22 L2.88337887,21.9932723 C2.42429701,21.9399506 2.06004937,21.575703 2.00672773,21.1166211 L2,21 L2,16 L2.00672773,15.8833789 C2.06004937,15.424297 2.42429701,15.0600494 2.88337887,15.0067277 L3,15 Z M21,15 C21.5128358,15 21.9355072,15.3860402 21.9932723,15.8833789 L22,16 L22,21 C22,21.5128358 21.6139598,21.9355072 21.1166211,21.9932723 L21,22 L16,22 C15.4477153,22 15,21.5522847 15,21 C15,20.4871642 15.3860402,20.0644928 15.8833789,20.0067277 L16,20 L20,20 L20,16 C20,15.4871642 20.3860402,15.0644928 20.8833789,15.0067277 L21,15 Z M8,2 C8.55228475,2 9,2.44771525 9,3 C9,3.51283584 8.61395981,3.93550716 8.11662113,3.99327227 L8,4 L4,4 L4,8 C4,8.51283584 3.61395981,8.93550716 3.11662113,8.99327227 L3,9 C2.48716416,9 2.06449284,8.61395981 2.00672773,8.11662113 L2,8 L2,3 C2,2.48716416 2.38604019,2.06449284 2.88337887,2.00672773 L3,2 L8,2 Z M21,2 L21.1166211,2.00672773 C21.575703,2.06004937 21.9399506,2.42429701 21.9932723,2.88337887 L22,3 L22,8 L21.9932723,8.11662113 C21.9399506,8.57570299 21.575703,8.93995063 21.1166211,8.99327227 L21,9 L20.8833789,8.99327227 C20.424297,8.93995063 20.0600494,8.57570299 20.0067277,8.11662113 L20,8 L20,4 L16,4 L15.8833789,3.99327227 C15.3860402,3.93550716 15,3.51283584 15,3 C15,2.48716416 15.3860402,2.06449284 15.8833789,2.00672773 L16,2 L21,2 Z"/>
</svg>
