<svg version="1.1" width="24" height="24" viewBox="0 0 24 24" xmlns="http://www.w3.org/2000/svg">
  <title>fullscreen exit</title>
  <path fill="#1181A6" d="M21,15 C21.5522847,15 22,15.4477153 22,16 C22,16.5128358 21.6139598,16.9355072 21.1166211,16.9932723 L21,17 L17,17 L17,21 C17,21.5128358 16.6139598,21.9355072 16.1166211,21.9932723 L16,22 C15.4871642,22 15.0644928,21.6139598 15.0067277,21.1166211 L15,21 L15,16 C15,15.4871642 15.3860402,15.0644928 15.8833789,15.0067277 L16,15 L21,15 Z M8,15 L8.11662113,15.0067277 C8.57570299,15.0600494 8.93995063,15.424297 8.99327227,15.8833789 L9,16 L9,21 L8.99327227,21.1166211 C8.93995063,21.575703 8.57570299,21.9399506 8.11662113,21.9932723 L8,22 L7.88337887,21.9932723 C7.42429701,21.9399506 7.06004937,21.575703 7.00672773,21.1166211 L7,21 L7,17 L3,17 L2.88337887,16.9932723 C2.38604019,16.9355072 2,16.5128358 2,16 C2,15.4871642 2.38604019,15.0644928 2.88337887,15.0067277 L3,15 L8,15 Z M16,2 L16.1166211,2.00672773 C16.575703,2.06004937 16.9399506,2.42429701 16.9932723,2.88337887 L17,3 L17,7 L21,7 L21.1166211,7.00672773 C21.6139598,7.06449284 22,7.48716416 22,8 C22,8.51283584 21.6139598,8.93550716 21.1166211,8.99327227 L21,9 L16,9 L15.8833789,8.99327227 C15.424297,8.93995063 15.0600494,8.57570299 15.0067277,8.11662113 L15,8 L15,3 L15.0067277,2.88337887 C15.0600494,2.42429701 15.424297,2.06004937 15.8833789,2.00672773 L16,2 Z M8,2 C8.51283584,2 8.93550716,2.38604019 8.99327227,2.88337887 L9,3 L9,8 C9,8.51283584 8.61395981,8.93550716 8.11662113,8.99327227 L8,9 L3,9 C2.44771525,9 2,8.55228475 2,8 C2,7.48716416 2.38604019,7.06449284 2.88337887,7.00672773 L3,7 L7,7 L7,3 C7,2.48716416 7.38604019,2.06449284 7.88337887,2.00672773 L8,2 Z"/>
</svg>
