<svg width="130" height="130" viewBox="0 0 130 130" fill="none" xmlns="http://www.w3.org/2000/svg">
<path d="M58.5819 0.13572C58.0823 0.256183 55.6278 0.686409 53.1281 1.09112C6.18057 8.69809 -16.0249 65.9044 13.0399 104.367C22.0911 116.344 42.8769 129.906 43.9063 124.506C44.0352 123.832 42.7979 122.978 39.7267 121.624C27.1273 116.065 15.7261 105.112 9.50536 92.5938C-13.088 47.1276 25.5668 -4.32319 76.044 4.02852C83.6269 5.28359 84.9438 2.66782 77.5125 1.11129C74.1301 0.402757 60.4068 -0.303999 58.5819 0.136315V0.13572ZM58.8848 13.5427C50.0082 14.8494 38.5856 19.3896 38.5856 21.6114C38.5856 23.3352 39.8675 23.2017 44.5526 20.9901C70.2154 8.8779 101.459 22.1306 110.755 49.0716C126.206 93.8524 75.1975 131.76 36.4649 104.279C14.9419 89.009 9.97881 58.679 25.4296 36.8396C29.5296 31.0443 27.3721 28.5941 23.1853 34.2915C-2.6105 69.3966 24.3217 118.982 67.8417 116.507C111.774 114.008 132.779 61.4206 102.547 29.6195C91.4645 17.9613 73.5854 11.378 58.8854 13.5415L58.8848 13.5427ZM111.704 21.4488C110.803 22.349 111.492 23.9601 114.376 27.704C135.761 55.4579 128.76 96.9429 99.3972 116.46C86.1663 125.255 74.5495 127.692 52.8257 126.233C50.7799 126.096 50.4015 126.252 50.4015 127.237C50.4015 131.711 76.4034 130.498 89.2957 125.422C127.1 110.539 142.005 62.4946 119.218 28.9739C114.894 22.6137 112.719 20.4352 111.704 21.4494L111.704 21.4488ZM47.3137 44.1107C46.2391 45.2963 46.147 46.6867 45.9825 64.2031C45.7122 92.9997 42.843 92.1292 77.6497 73.8111C94.6129 64.8831 94.7079 65.1632 70.3788 52.4143C51.3573 42.4467 49.4463 41.7584 47.3137 44.1107ZM68.3347 55.0052C86.8162 64.6481 86.9125 64.7081 85.6198 65.7798C84.1704 66.982 51.2147 84 50.3373 84C49.6328 84 49.4926 80.8353 49.4926 64.9324C49.4926 51.5574 49.6904 45.8642 50.1544 45.8642C50.5179 45.8642 58.6995 49.9778 68.3353 55.0052H68.3347Z" fill="#FFFFFF"/>
</svg>
